<svg id="Layer_1" data-name="Layer 1" xmlns="http://www.w3.org/2000/svg" viewBox="0 0 1200 1200"><defs><style>.cls-1{fill:#e9e8e8;}.cls-2,.cls-6{fill:#fff;}.cls-3{fill:#9dd5c0;}.cls-4,.cls-7{fill:none;}.cls-4,.cls-6{stroke:#1d252e;stroke-linecap:round;stroke-width:2px;}.cls-5{fill:#1d252e;}</style></defs><path id="Path-141" class="cls-1" d="M758.14,467.29C647.45,392.45,393.16,193.21,260,309.14S199.75,981.74,592,921.8c147.36-22.52,370-34.95,401.22-104C1045.12,702.94,827.25,514,758.14,467.29Z"/><polygon class="cls-2" points="562.17 540 565.32 166.22 571.98 166.22 568.84 540 562.17 540"/><path class="cls-3" d="M569.21,166.1s50.18-6.94,64.89,19.18,73.83,21.24,82.42,19.68c-39.46,24.44-95.73,30.51-95.73,30.51-28.81,4.35-51.89,24.84-51.89,24.84Z"/><path class="cls-4" d="M652.5,206.05c-12.16-.72-26.19-8.81-31.52-16.39"/><path class="cls-4" d="M619.87,202.65c-6-3.48-12.19-6.23-19.23-2.46"/><path class="cls-3" d="M1023.32,973.69c-45.2,34.92-106.53,16.18-275.17-2.56s-255.52,32.37-327.06,57.92-227.47-42.58-244-55.36c-61.76-47.6,169.85-309.91,172.9-309.77s57.46,30,64.86,30.19,73.25-60.76,78.84-59.54,65.67,62.28,65.67,62.28,62.88-60,68.67-60.05,74.79,55,74.79,55,75-39,79.78-38.57S1092.14,930.85,1023.32,973.69Z"/><path class="cls-2" d="M782.55,653.23c-4.26,0-69.28,37.42-79.78,38.57s-64.88-54.21-74.79-55-57.31,57.87-68.67,60.05-60.54-61.06-65.67-62.28-74.06,59.54-78.84,59.54-64.86-30.19-64.86-30.19C428.64,593.69,517.46,540,566.05,540,611.52,540,786.8,653.21,782.55,653.23Z"/><path class="cls-4" d="M356.27,658.31C433.12,590.85,518.76,540,566.05,540c38.66,0,169.88,81.87,207.09,106.39"/><path id="Path-93" class="cls-2" d="M494.75,364.09c2.82,1.06,9.14-3,9.14-3l62.36-54.32,6.7-4.08c15.86-12.15,10.39-20.47,10.27-22.46-.18-3-19.59,4.34-23.14,7.42q-3.54,3.08-8.18,13.77l-55.39,40.37-7.84,1.49S488.11,361.6,494.75,364.09Z"/><path id="Path-93-2" data-name="Path-93" class="cls-4" d="M560.59,311.5l-56.7,49.58s-3.33,4.31-6.16,3.3"/><path id="Path-93-3" data-name="Path-93" class="cls-4" d="M573.85,281.09c4.31-1.4,8.2-2.08,9.37-.87,1.64.76,6.7,9.36-9.16,21.51"/><path id="Path-93-4" data-name="Path-93" class="cls-4" d="M496.51,341.78l55.39-40.37q4.64-10.7,8.18-13.77"/><polygon id="Path-119" class="cls-2" points="354.76 427.94 344.35 458.73 321.13 532.72 323.08 537.36 324.93 544.36 320.31 551.01 311.89 556.26 304.57 555.15 302.13 545.87 302.41 536.05 307.73 527.56 311.09 522.51 333.78 418.6 354.76 427.94"/><path id="Path-90" class="cls-4" d="M330.27,429.11q-18.84,92.17-20.61,94c-1.78,1.85-10.78,15.44-8.43,24.35s8,11.17,14.56,7,9-8,8.84-13.21a12.19,12.19,0,0,0-3.5-8.61l30.68-99"/><path id="Path-91" class="cls-4" d="M322.13,533.73q-3.84-4.43-8.38-3.23t-6.5,8.13"/><path id="Path-102" class="cls-5" d="M434.05,293.16q3.52-10.07,0-16.15a28.83,28.83,0,0,0-26.88-13.34C393,264.6,381.26,276.39,377.4,290q-3.86,13.61.71,29.69,3.38,5.35,7.47,5.64c4.1.29,12.54-1.24,15.5-4Q404.05,318.49,434.05,293.16Z"/><polygon id="Path-103" class="cls-2" points="432.24 293.04 435.32 303.42 433.27 315.13 426.77 323.26 420.06 326.81 419.24 338.75 418.1 346.74 430.03 348.09 427.63 360.55 394.41 366.62 382.83 351.08 387.31 347.2 398.44 345.74 401.88 325.54 396.34 317.11 394.01 309.27 388.88 308.34 387.86 300.11 391.83 296.23 398.74 295.25 403.62 288.07 403.16 281.74 420.97 292.25 432.24 293.04"/><path id="Path-86" class="cls-4" d="M432.24,293a27.61,27.61,0,0,1,1.77,20q-2.91,10.26-14.64,13.63l-1.27,20a39.14,39.14,0,0,1,7.86.38"/><path id="Path-87" class="cls-4" d="M431.93,292.28c-1.79,1.08-5.15.84-10.11-.7s-11.17-4.83-18.66-9.85a12.38,12.38,0,0,1-.59,8.5,11.8,11.8,0,0,1-5.43,6c-4.21-1.4-7-.46-8.44,2.79-2.13,4.89-.72,9.14.92,9.95a7,7,0,0,0,4.39.31q-.37,3.84,2.93,9.09t5,5.81l-2.67,21.7L388,347.35"/><path id="Path-98" class="cls-4" d="M421.51,326a13.14,13.14,0,0,1-5,1.29,21.91,21.91,0,0,1-7.62-.84"/><path id="Path-104" class="cls-4" d="M386.41,327.51a7,7,0,0,1-4-.28c-1.57-.5-3.25-2-5-4.33"/><path id="Path-105" class="cls-5" d="M385.77,330.09q-1.56.66-5.2-.36a9,9,0,0,1-5.67-5.15q-3.06-.22-6.5,5.52c-3.44,5.74-2.09,13.35-4.83,17.12a23.89,23.89,0,0,1-8.41,6.76q17.73,3.4,24.62-6.25T385.77,330.09Z"/><path id="Path-88" class="cls-3" d="M446.42,390.91l52.38-11.42a77.29,77.29,0,0,1-3.57-18.95q-.62-9.71-2.19-21.72c-23.1,1.2-49.21,1.34-59.37,8.6C423.73,362.14,436.48,405.63,446.42,390.91Z"/><path id="Path-88-2" data-name="Path-88" class="cls-3" d="M377.17,402.17l-18.61,31.09A72.7,72.7,0,0,0,342,425.83q-8.76-2.68-19.42-6.77,9.22-31.28,15.36-43.24t20.28-24.25C374.82,345.34,393.8,395.93,377.17,402.17Z"/><path id="Path-88-3" data-name="Path-88" class="cls-3" d="M429.49,345.65q-1.8,7.62-11.62,11.72T384.3,346.92c-12.49,0-17.32,1.29-25.63,4.64s11.67,59.24,11.67,59.24l-7.76,73,85.49,3.87q-.68-20.24-1.1-28.54a351.55,351.55,0,0,1,.56-42.39s14.56-39.35,8.19-70.91C450.86,338.38,442.57,345.48,429.49,345.65Z"/><path class="cls-2" d="M385.19,734.36c-.7,2.94-1.34,15.13-1.34,15.13l31,28.49s18.75,11.16-2.23,7.64c-17.34-2.91-34.2-4.49-51.44-8-1.8-.24-2.84-1.6-4.56-2.43-2.17-2.12-1.77-5.12-2.06-7.6.74-10.28,4.95-27.34,6.49-37.79Z"/><path class="cls-4" d="M384.29,739.19c-.7,2.94-.44,10.3-.44,10.3l31,28.49s18.75,11.16-2.23,7.64c-17.34-2.91-34.2-4.49-51.44-8-1.8-.24-2.84-1.6-4.56-2.43-2.17-2.12-1.77-5.12-2.06-7.6.74-10.28,3.88-20.24,5.42-30.68"/><path class="cls-2" d="M484.82,682.29c-.38,3,.14,17.31.14,17.31l33.95,24.95s18.36,8.7-1.38,7.84c-17.58-.76-34.49-.75-52-2.35-1.82,0-3-1.27-4.81-1.92-2.38-1.87-2.31-4.89-2.86-7.33-.38-10.29,2.9-30.7,3.29-41.25Z"/><path class="cls-4" d="M484.29,689.31c-.38,3,.67,10.29.67,10.29l33.95,24.95s18.36,8.7-1.38,7.84c-17.58-.76-34.49-.75-52-2.35-1.82,0-3-1.27-4.81-1.92-2.38-1.87-2.31-4.89-2.86-7.33-.38-10.29,1.66-20.54,2.06-31.09"/><path class="cls-5" d="M500.32,552.7,499,551.39l-49.78-57.47.53-9.71c-1.82-.73-3.64-1.32-5.47-1.86s-3.66-1-5.49-1.46q-5.49-1.32-11-2.19a189.34,189.34,0,0,0-22.1-2.16,180.73,180.73,0,0,0-22.19.4c-3.71.3-7.43.74-11.15,1.35-1.86.32-3.72.65-5.58,1.07s-3.73.87-5.6,1.48l-.82,21.61A23.72,23.72,0,0,0,360,506l5.17,105.1L353.92,730.79l38.71,5.4,17.91-120.88,1.95-91c1.5,2.08,49.65,55.24,49.65,55.24L452,683.82,493,688l12.43-120.43A18.37,18.37,0,0,0,500.32,552.7Z"/><path class="cls-4" d="M441.35,370.24c8.88,10.12,13.3,23.31,6.18,46.53,0,0-2,33.75-1.69,36.91"/><line class="cls-4" x1="370.21" y1="413.48" x2="366.02" y2="446.87"/><path class="cls-4" d="M377.1,412.91c2.34,2.78,13.81,7.31,18.3,5.93"/><path class="cls-4" d="M391.68,785.82q2.71,1.3,5.61,2.82"/><path class="cls-4" d="M331.22,787.82c6.5-4.43,13.59-9,23.47-10.23"/><path class="cls-4" d="M414.24,772.36c8.42,1,18.57,4.32,31.18,11"/><path class="cls-4" d="M491.33,735.65q2.73,1.3,5.62,2.82"/><path class="cls-4" d="M430.88,737.65c6.49-4.43,13.59-9,23.46-10.23"/><path class="cls-4" d="M520.63,721.22c8.43,1,18.58,4.32,31.18,11"/><path class="cls-4" d="M500.39,658c15.57,17.14,48.36,52,57.69,52,12.38,0,68.33-61.28,71.92-60.71s56.59,54.82,69.56,56.59,83.11-39.5,83.11-39.5l10.61,7.08"/><path class="cls-4" d="M401.51,697.25s12.64,7.88,15.67,8.13,28.52-20.11,28.52-20.11"/><line class="cls-4" x1="349.56" y1="670.28" x2="354" y2="672.59"/><path class="cls-6" d="M563.59,291.12s9.89-3.54,9.11.47-6,6.38-6,6.38-3.49-1.27-6.07,3.88"/><line class="cls-4" x1="571.02" y1="262.51" x2="571.12" y2="286.23"/><line class="cls-4" x1="565.32" y1="166.22" x2="564.8" y2="287.25"/><line class="cls-4" x1="564.46" y1="305.94" x2="562.17" y2="533.61"/><line class="cls-4" x1="568.52" y1="533.61" x2="571.53" y2="299.7"/><rect class="cls-7" width="1200" height="1200"/></svg>